<?xml version="1.0" standalone="no"?>
<!DOCTYPE svg PUBLIC "-//W3C//DTD SVG 20010904//EN"
 "http://www.w3.org/TR/2001/REC-SVG-20010904/DTD/svg10.dtd">
<svg version="1.0" xmlns="http://www.w3.org/2000/svg"
 width="512.000000pt" height="512.000000pt" viewBox="0 0 512.000000 512.000000"
 preserveAspectRatio="xMidYMid meet">

<g transform="translate(0.000000,512.000000) scale(0.100000,-0.100000)"
fill="#000000" stroke="none">
<path d="M2660 5104 c-55 -24 -96 -60 -119 -106 l-21 -43 -72 0 c-62 0 -80 -4
-120 -28 -77 -45 -118 -125 -118 -228 l0 -47 -57 5 c-50 4 -66 0 -113 -24 -70
-36 -116 -100 -125 -176 -3 -28 -5 -331 -3 -672 l3 -620 25 -54 c13 -30 39
-74 56 -97 l32 -42 -30 -28 c-16 -16 -42 -51 -56 -79 l-27 -50 -2 -1375 c-2
-1093 0 -1380 10 -1400 26 -52 117 -47 138 7 5 14 9 514 9 1204 l0 1179 495 0
495 0 0 -1192 c0 -656 4 -1198 8 -1204 11 -16 48 -34 72 -34 11 0 32 11 46 25
l24 24 -2 1388 -3 1388 -22 42 c-13 23 -39 58 -59 77 -36 35 -36 35 -18 59 11
14 151 182 312 373 162 192 301 363 310 379 10 18 16 54 17 90 0 121 -89 210
-210 210 -75 -1 -105 -17 -195 -102 l-70 -65 0 420 c0 262 -4 440 -11 471 -14
64 -57 125 -111 153 -33 17 -60 22 -117 23 -69 0 -74 2 -83 25 -40 107 -184
169 -288 124z m124 -155 l26 -20 0 -415 c0 -453 3 -477 54 -490 40 -10 74 4
91 36 13 24 15 85 15 369 l0 340 26 20 c35 27 57 26 91 -3 l28 -24 5 -512 5
-512 33 -29 c35 -31 77 -38 115 -17 12 6 65 52 117 101 122 115 134 123 166
109 38 -18 51 -55 30 -87 -28 -43 -596 -718 -625 -742 -56 -49 -106 -55 -433
-51 l-303 3 -48 28 c-55 33 -92 83 -106 147 -14 62 -15 1217 -1 1257 10 28 45
53 74 53 7 0 25 -9 40 -21 l26 -20 0 -200 c0 -199 0 -200 25 -224 27 -28 71
-33 101 -11 18 14 19 33 24 371 l5 357 28 24 c34 29 56 30 91 3 l26 -20 0
-342 c0 -254 4 -348 13 -367 15 -30 54 -45 91 -36 54 13 56 34 56 490 l0 415
26 20 c15 12 34 21 44 21 10 0 29 -9 44 -21z m201 -2095 c56 -26 69 -56 73
-171 l4 -103 -496 0 -496 0 0 104 c0 91 3 107 22 131 42 53 51 54 471 55 335
0 394 -2 422 -16z"/>
<path d="M908 3516 c-62 -16 -111 -56 -137 -109 l-21 -44 -54 5 c-66 5 -117
-11 -163 -51 -67 -59 -72 -84 -74 -337 -1 -124 -4 -312 -8 -418 l-6 -192 -73
64 c-55 48 -85 67 -121 76 -175 42 -317 -161 -217 -310 13 -19 152 -187 308
-373 l284 -337 -42 -45 c-75 -78 -74 -65 -74 -772 l0 -624 25 -24 c31 -32 69
-32 100 0 l25 24 0 456 0 455 470 0 470 0 0 -455 0 -456 25 -24 c30 -31 64
-32 99 -4 l27 21 -3 651 c-3 646 -3 652 -25 692 -11 22 -35 53 -52 69 l-30 29
30 35 c17 19 41 56 52 81 22 45 22 55 25 682 l3 636 -29 54 c-40 76 -102 114
-189 114 l-63 0 0 35 c-1 155 -101 258 -239 248 -56 -4 -60 -3 -66 19 -8 33
-62 91 -104 112 -51 25 -98 31 -153 17z m102 -166 c19 -19 20 -33 20 -425 l0
-406 25 -24 c13 -14 36 -25 50 -25 14 0 37 11 50 25 l25 24 0 331 c0 317 1
331 20 350 24 24 67 26 92 3 17 -15 18 -39 18 -337 0 -344 2 -357 51 -385 22
-12 32 -12 56 -2 48 19 53 45 53 241 0 146 3 181 15 194 27 26 56 29 84 8 l26
-19 3 -599 c3 -672 4 -655 -69 -717 -21 -19 -56 -39 -78 -45 -50 -15 -570 -16
-624 -1 -21 5 -53 24 -72 41 -58 50 -605 708 -605 727 0 29 25 54 54 54 20 0
45 -16 89 -60 144 -138 164 -153 203 -153 27 0 44 8 68 33 l33 32 6 274 c4
151 7 368 7 483 0 195 1 209 20 228 24 24 57 26 88 4 22 -15 22 -16 22 -339 0
-343 3 -364 47 -384 35 -16 49 -14 80 13 l28 24 3 408 c3 359 5 411 19 426 21
24 68 23 93 -2z m530 -1985 c46 -24 60 -62 60 -165 l0 -90 -470 0 -470 0 0 84
c0 101 13 142 54 167 29 18 55 19 414 19 323 0 388 -2 412 -15z"/>
<path d="M4120 3521 c-72 -15 -152 -80 -165 -134 -6 -22 -10 -23 -66 -19 -138
10 -238 -93 -239 -248 l0 -35 -63 0 c-87 0 -149 -38 -189 -114 l-29 -54 3
-636 c3 -627 3 -637 25 -682 11 -25 35 -62 52 -81 l30 -35 -30 -29 c-17 -16
-41 -47 -52 -69 -22 -40 -22 -46 -25 -692 l-3 -651 27 -21 c35 -28 69 -27 99
4 l25 24 0 456 0 455 370 0 371 0 24 25 c32 31 33 74 2 103 -23 22 -27 22
-395 22 l-372 0 0 90 c0 103 14 141 60 165 44 23 766 22 815 -1 67 -31 65 -14
65 -702 l0 -621 26 -20 c35 -28 69 -26 99 4 l25 24 0 624 c0 707 1 694 -74
772 l-42 45 284 337 c156 186 295 354 308 373 100 149 -45 353 -219 309 -34
-8 -67 -29 -119 -75 l-73 -64 -6 187 c-4 104 -7 292 -8 418 -2 258 -7 283 -74
342 -46 40 -97 56 -163 51 l-54 -5 -21 45 c-24 49 -84 97 -132 107 -18 4 -39
8 -47 9 -8 2 -31 0 -50 -3z m82 -168 c17 -15 18 -41 18 -412 0 -424 1 -432 51
-460 33 -19 81 -1 98 35 7 17 11 129 11 346 0 285 2 323 17 340 21 24 68 23
93 -2 19 -19 20 -33 20 -297 0 -153 3 -370 7 -483 l6 -205 33 -32 c24 -25 41
-33 68 -33 39 0 59 15 203 153 44 44 69 60 89 60 29 0 54 -25 54 -54 0 -19
-547 -677 -605 -727 -19 -17 -51 -36 -72 -41 -54 -15 -574 -14 -624 1 -22 6
-57 26 -78 45 -73 62 -72 45 -69 717 l3 599 26 19 c28 21 57 18 84 -8 12 -13
15 -48 15 -194 0 -191 6 -220 47 -239 34 -15 47 -14 76 9 l26 21 3 333 c3 312
4 335 22 355 19 21 61 28 82 13 31 -20 34 -54 34 -372 l0 -321 25 -24 c31 -32
69 -32 100 0 l25 24 0 403 c0 349 2 407 16 426 18 27 69 30 96 5z"/>
</g>
</svg>
